<?xml version="1.0" encoding="utf-8"?>
<!-- Generator: Adobe Illustrator 15.1.0, SVG Export Plug-In . SVG Version: 6.00 Build 0)  -->
<!DOCTYPE svg PUBLIC "-//W3C//DTD SVG 1.1//EN" "http://www.w3.org/Graphics/SVG/1.1/DTD/svg11.dtd">
<svg version="1.1" id="Layer_1" xmlns="http://www.w3.org/2000/svg" xmlns:xlink="http://www.w3.org/1999/xlink" x="0px" y="0px"
	 width="261.83px" height="116.122px" viewBox="0 0 261.83 116.122" enable-background="new 0 0 261.83 116.122"
	 xml:space="preserve">
<g>
	<g>
		<g>
			<path fill="#FFFFFF" d="M132.899,66.355c0-3.056,2.479-5.531,5.531-5.531h23.5c3.055,0,5.53,2.478,5.53,5.531v44.238
				c0,3.051-2.478,5.528-5.53,5.528h-23.5c-3.054,0-5.531-2.479-5.531-5.528V66.355z"/>
			<path fill="#FFFFFF" d="M92.811,66.355c0-3.056,2.477-5.531,5.529-5.531h23.502c3.053,0,5.529,2.478,5.529,5.531v16.589
				c0,3.055-2.477,5.528-5.529,5.528H98.34c-3.053,0-5.529-2.476-5.529-5.528V66.355z"/>
			<path fill="#FFFFFF" d="M172.989,66.355c0-3.056,2.479-5.531,5.529-5.531h23.502c3.055,0,5.528,2.478,5.528,5.531v16.589
				c0,3.055-2.475,5.528-5.528,5.528h-23.502c-3.052,0-5.529-2.476-5.529-5.528V66.355z"/>
		</g>
		<g>
			<path fill="#FFFFFF" d="M207.549,49.764c0,3.055-2.475,5.529-5.528,5.529h-23.502c-3.052,0-5.529-2.475-5.529-5.529V5.531
				c0-3.055,2.479-5.531,5.529-5.531h23.502c3.055,0,5.528,2.477,5.528,5.531V49.764z"/>
			<path fill="#FFFFFF" d="M247.64,49.764c0,3.055-2.476,5.529-5.529,5.529h-23.5c-3.055,0-5.529-2.475-5.529-5.529V33.176
				c0-3.053,2.475-5.529,5.529-5.529h23.5c3.055,0,5.529,2.477,5.529,5.529V49.764z"/>
		</g>
	</g>
	<path fill="#FFFFFF" d="M80.598,61.67c-1.01,0-1.98,0.281-2.828,0.729l0.16-0.768h-5.822l-3.406,16.061
		c-0.588,0.516-1.203,0.852-1.811,0.852c-1.295,0-1.658-0.729-1.658-1.66c0-0.481,0.08-1.01,0.203-1.494l1.654-7.729
		c0.041-0.324,0.082-0.608,0.082-0.933c0-2.751-2.424-5.097-4.65-5.097c-1.982,0-4.125,1.252-5.904,2.67
		c-0.889-1.581-2.506-2.67-4.004-2.67c-1.738,0-3.6,0.97-5.217,2.144l0.445-2.144h-5.824l-3.342,15.775
		c-0.688,0.458-1.355,0.771-1.957,0.771c-1.615,0-2.02-0.646-2.02-1.536c0-0.363,0.08-0.81,0.162-1.254l2.91-13.757h-5.824
		l-0.242,1.05c-0.729-0.607-1.736-1.011-2.709-1.011c-7.605,0-10.276,7.373-10.568,14.041c-1.621,1.832-4.123,2.752-6.739,2.752
		c-4.367,0-5.34-2.266-5.34-7.565c0-7.204,3.196-17.482,8.169-17.482c2.592,0,2.795,2.226,2.795,2.872
		c0,1.011-0.771,3.037-1.783,3.318c0.771,0.891,1.66,1.057,2.307,1.057c2.063,0,2.83-1.582,2.83-3.729
		c0-3.923-3.277-5.421-7.037-5.421C2.871,51.512,0,62.963,0,71.788c0,8.295,4.73,10.316,8.857,10.316
		c3.02,0,7.033-0.768,9.629-4.045c0.324,2.062,1.633,4.045,4.929,4.045c2.469,0,4.288-1.658,5.501-3.318
		c0.525,2.107,2.305,3.076,4.934,3.076c1.299,0,2.838-0.913,4.33-2.117l-0.449,2.117h5.824l3.477-16.351
		c0.811-0.563,1.5-0.847,2.469-0.847c1.092,0,1.859,0.932,1.859,2.385c0,0.326-0.039,0.689-0.121,1.056l-2.914,13.757h5.865
		l2.994-14.203c0.037-0.283,0.082-0.564,0.082-0.85c0-0.487-0.082-0.932-0.203-1.415c0.768-0.485,1.453-0.729,2.346-0.729
		c1.092,0,1.859,0.933,1.859,2.387c0,0.324-0.041,0.688-0.119,1.055l-1.537,7.282c-0.162,0.769-0.242,1.413-0.242,2.065
		c0,3.034,1.857,4.408,5.014,4.408c1.256,0,2.588-0.835,3.854-1.979l-2.564,12.094l6.109-1.456l2.105-9.914
		c1.213,0.769,2.465,1.214,3.799,1.214c4.127,0,7.604-2.953,8.859-11.652c0.16-1.056,0.238-1.985,0.238-2.834
		C86.784,63.167,84.803,61.67,80.598,61.67z M29.037,75.388c-0.121,0.485-0.203,0.931-0.242,1.335
		c-0.771,1.133-1.66,2.023-2.588,2.023c-1.012,0-2.346-0.447-2.346-2.873c0-5.504,2.424-11.938,5.46-11.938
		c0.563,0,1.333,0.162,1.98,0.729L29.037,75.388z M81.37,70.653c-1.338,6.436-2.307,8.174-4.33,8.174c-0.648,0-1.66,0-2.627-0.729
		l2.91-13.595c0.768-0.526,1.537-0.852,2.307-0.852c1.293,0,2.264,0.485,2.264,2.916C81.893,67.538,81.729,68.875,81.37,70.653z"/>
	<path fill="#FFFFFF" d="M45.008,33.039c0.529,0.609,1.178,0.85,1.822,0.85c2.105,0,3.357-1.779,3.357-4.084
		c0-4.531-4.65-4.856-6.795-4.856c-4.811,0-9.627,3.276-9.627,7.526c0,6.029,8.736,7.688,8.736,15.295
		c0,2.992-1.25,5.786-4.447,5.786c-1.898,0-4.004-1.174-4.004-3.886c0-2.791,1.453-4.167,4.732-4.448
		c-0.322-1.458-1.457-2.065-3.279-2.065c-3.111,0-5.941,2.021-5.941,5.826c0,5.825,5.703,6.514,8.937,6.514
		c6.508,0,10.717-3.683,10.717-9.387c0-9.022-9.1-9.388-9.1-15.74c0-2.226,1.535-3.52,3.762-3.52c2.141,0,2.951,1.294,2.951,2.711
		C46.831,30.895,46.102,32.395,45.008,33.039z M160.47,35.063c-1.703,0-3.318,0.89-4.773,2.023l0.443-2.023h-5.824l-2.537,11.979
		h-0.01c-1.412,2.992-4.813,5.34-6.791,5.34c-1.578,0-3.318-0.811-3.318-3.48c0-0.483,0.039-1.091,0.121-1.739
		c3.842-0.486,9.141-3.317,9.141-8.252c0-2.836-1.863-4.212-5.178-4.212c-7.359,0-9.543,9.024-9.543,14.162
		c0,0.512,0.051,1.013,0.143,1.492c-0.793,0.921-1.689,1.624-2.568,1.624c-1.295,0-1.658-0.729-1.658-1.661
		c0-0.483,0.082-1.011,0.201-1.494l1.66-7.729c0.039-0.322,0.08-0.607,0.08-0.93c0-2.752-2.428-5.099-4.65-5.099
		c-1.98,0-4.127,1.253-5.906,2.671c-0.889-1.578-2.506-2.671-4.002-2.671c-1.74,0-3.602,0.971-5.217,2.144l0.445-2.144h-5.826
		l-3.4,16.062c-0.588,0.516-1.205,0.852-1.816,0.852c-1.291,0-1.656-0.729-1.656-1.661c0-0.483,0.082-1.011,0.201-1.494l1.662-7.729
		c0.037-0.322,0.076-0.607,0.076-0.93c0-2.752-2.424-5.099-4.646-5.099c-1.984,0-4.129,1.253-5.906,2.671
		c-0.891-1.578-2.508-2.671-4.004-2.671c-1.738,0-3.6,0.971-5.217,2.144l0.447-2.144h-5.824L71.497,50.74
		c-0.736,0.515-1.455,0.872-2.1,0.872c-1.615,0-2.02-0.645-2.02-1.535c0-0.365,0.08-0.81,0.16-1.254l2.912-13.758h-5.822
		l-2.914,13.758c-0.119,0.483-0.203,0.93-0.242,1.335c-1.01,0.81-2.02,1.454-2.869,1.454c-1.619,0-2.023-0.645-2.023-1.535
		c0-0.365,0.082-0.81,0.162-1.254l2.91-13.758h-5.822l-2.912,13.758c-0.162,0.769-0.242,1.455-0.242,2.064
		c0,3.036,1.941,4.407,5.055,4.407c1.742,0,3.922-1.615,5.824-3.396c0.363,2.347,2.223,3.396,4.973,3.396
		c1.346,0,2.939-0.973,4.479-2.234l-0.475,2.234h5.824l3.479-16.346c0.811-0.563,1.494-0.848,2.467-0.848
		c1.094,0,1.859,0.93,1.859,2.385c0,0.324-0.039,0.69-0.121,1.055l-2.914,13.754h5.867l2.992-14.201
		c0.043-0.283,0.082-0.565,0.082-0.849c0-0.485-0.082-0.928-0.205-1.415c0.771-0.486,1.457-0.729,2.348-0.729
		c1.092,0,1.861,0.93,1.861,2.385c0,0.324-0.045,0.69-0.125,1.055l-1.535,7.282c-0.16,0.769-0.242,1.413-0.242,2.064
		c0,3.036,1.857,4.407,5.016,4.407c1.256,0,2.586-0.832,3.854-1.977l-0.416,1.977h5.822l3.479-16.346
		c0.809-0.564,1.496-0.848,2.465-0.848c1.094,0,1.861,0.93,1.861,2.385c0,0.324-0.041,0.69-0.123,1.055l-2.91,13.754h5.865
		l2.99-14.201c0.043-0.283,0.082-0.565,0.082-0.849c0-0.485-0.082-0.928-0.203-1.415c0.771-0.486,1.455-0.729,2.346-0.729
		c1.092,0,1.861,0.93,1.861,2.385c0,0.324-0.041,0.69-0.121,1.055l-1.537,7.282c-0.162,0.769-0.242,1.413-0.242,2.064
		c0,3.036,1.859,4.407,5.014,4.407c1.805,0,3.764-1.719,5.46-3.598c0.849,2.107,2.703,3.598,5.457,3.598
		c3.595,0,6.554-1.938,8.804-4.505l-0.955,4.505h5.819l3.359-15.86c0.928-0.847,1.576-1.294,2.787-1.294
		c1.213,0,0.082,2.67,2.348,2.67c1.982,0,3.031-1.737,3.031-3.155C163.377,36.113,162.288,35.063,160.47,35.063z M143.079,36.844
		c1.215,0,1.416,1.417,1.416,2.269c-0.041,2.872-2.672,6.065-6.393,6.109C138.954,41.417,140.812,36.844,143.079,36.844z"/>
	<g>
		<path fill="#FFFFFF" d="M214.644,63.27c1.293-0.279,3.041-0.455,4.789-0.455c2.728,0,4.896,0.385,6.398,1.818
			c1.398,1.223,2.027,3.182,2.027,5.174c0,2.551-0.771,4.369-1.992,5.664c-1.469,1.572-3.811,2.271-5.734,2.271
			c-0.314,0-0.594,0-0.908-0.035v8.774h-4.58V63.27L214.644,63.27z M219.224,74.002c0.244,0.035,0.49,0.035,0.771,0.035
			c2.307,0,3.319-1.646,3.319-3.847c0-2.063-0.84-3.67-2.971-3.67c-0.42,0-0.84,0.067-1.119,0.174V74.002L219.224,74.002z"/>
		<path fill="#FFFFFF" d="M235.196,62.92v9.438h4.789V62.92h4.578v23.562h-4.578v-9.859h-4.789v9.859h-4.581V62.92H235.196z"/>
		<path fill="#FFFFFF" d="M248.614,63.27c1.294-0.279,3.041-0.455,4.789-0.455c2.728,0,4.896,0.385,6.398,1.818
			c1.398,1.223,2.027,3.182,2.027,5.174c0,2.551-0.77,4.369-1.992,5.664c-1.469,1.572-3.811,2.271-5.732,2.271
			c-0.315,0-0.596,0-0.91-0.035v8.774h-4.58V63.27z M253.194,74.002c0.244,0.035,0.49,0.035,0.771,0.035
			c2.308,0,3.32-1.646,3.32-3.847c0-2.063-0.839-3.67-2.972-3.67c-0.42,0-0.84,0.067-1.119,0.174V74.002z"/>
	</g>
</g>
</svg>
