<?xml version="1.0" encoding="utf-8"?>
<!-- Generator: Adobe Illustrator 22.0.1, SVG Export Plug-In . SVG Version: 6.00 Build 0)  -->
<svg version="1.1" id="Layer_1" xmlns="http://www.w3.org/2000/svg" xmlns:xlink="http://www.w3.org/1999/xlink" x="0px" y="0px"
	 viewBox="0 0 1024 512" style="enable-background:new 0 0 1024 512;" xml:space="preserve">
<style type="text/css">
	.st0{fill:#FFFFFF;}
	.st1{opacity:0.25;fill:#DFE1DF;enable-background:new    ;}
	.st2{opacity:0.25;fill:#A4A7A9;enable-background:new    ;}
	.st3{fill:#FFD106;}
	.st4{fill:#21BAB0;}
	.st5{fill:#EE4F97;}
	.st6{fill:#14A7DF;}
	.st7{fill:#91C73E;}
	.st8{fill:#0279A0;}
	.st9{fill:#231F20;}
	.st10{opacity:0.15;fill:#8F9599;enable-background:new    ;}
	.st11{fill:#474C55;}
	.st12{fill:#B6BCBF;}
	.st13{opacity:0.47;fill:#8F9599;enable-background:new    ;}
	.st14{fill:none;stroke:#000000;stroke-width:4;stroke-linecap:round;stroke-linejoin:round;stroke-miterlimit:10;}
	.st15{fill:#FED10A;stroke:#000000;stroke-width:4;stroke-linecap:round;stroke-linejoin:round;stroke-miterlimit:10;}
	.st16{fill:#F9B110;stroke:#000000;stroke-width:2;stroke-linecap:round;stroke-linejoin:round;stroke-miterlimit:10;}
	.st17{opacity:0.7;fill:#FFEC9D;enable-background:new    ;}
	.st18{fill:none;stroke:#000000;stroke-width:2;stroke-linecap:round;stroke-linejoin:round;stroke-miterlimit:10;}
	.st19{enable-background:new    ;}
	.st20{fill:none;stroke:#878A8F;stroke-width:2;stroke-miterlimit:10;}
	.st21{fill:none;stroke:#A4A7A9;stroke-miterlimit:10;}
	.st22{clip-path:url(#SVGID_2_);}
	.st23{fill:#8F9599;}
	.st24{opacity:0.63;fill:#A4A7A9;enable-background:new    ;}
	.st25{fill:#A4A7A9;}
	.st26{fill:#D7D8D6;}
	.st27{fill:#797D82;}
</style>
<g id="Layer_3">
</g>
<g id="Layer_5">
</g>
<g id="Layer_2_1_">
</g>
<g id="couch">
</g>
<g id="Layer_6">
</g>
<g id="Therapy">
	<rect class="st0" width="1024" height="512"/>
	<path class="st1" d="M815,317c0,0-273.3,44-368.7,94s-190.6,6.9-203.3-88c0,0,17-185,128-251s277-33,359-5s121,55,144,81
		S909.9,304.2,815,317z"/>
	<rect x="81.2" y="109.6" class="st2" width="38.8" height="60.8"/>
	<rect x="39.3" y="78.2" class="st2" width="31.5" height="40.9"/>
	<rect x="84.3" y="37.3" class="st2" width="31.5" height="40.9"/>
	<g>
		<g>
			<path class="st0" d="M877.3,465.6c0-4.3-2.7-8-6.6-9.5c0.2-0.9,0.3-1.8,0.3-2.7c0-7.9-6.5-14.4-14.4-14.4c-4.6,0-9,2.2-11.7,6
				c-1.3-1-3-1.6-4.7-1.6c-4.2,0-7.7,3.4-7.7,7.7c0,0.9,0.2,1.8,0.5,2.7c-4,1.4-6.7,5.3-6.7,9.5c0,4.3,2.7,8.1,6.7,9.5
				c-0.2,0.9-0.3,1.8-0.3,2.7c0,7.9,6.5,14.4,14.4,14.4c4.7,0,9-2.2,11.7-6c1.3,1.1,3,1.6,4.7,1.6c4.2,0,7.7-3.4,7.7-7.7
				c0-0.9-0.2-1.8-0.5-2.7C874.5,473.7,877.3,469.9,877.3,465.6"/>
			<path class="st3" d="M846.3,460.9l11.2,5.1l11.3-9.9c0.2-0.8,0.2-1.6,0.2-2.5c0-6.9-5.6-12.6-12.6-12.6c-4.2,0-8,2-10.4,5.5
				l-1.9,9.7L846.3,460.9z"/>
			<path class="st4" d="M834.8,472.7c-0.2,0.8-0.2,1.7-0.2,2.5c0,7,5.7,12.6,12.6,12.6c4.2,0,8.1-2.1,10.4-5.5l1.9-9.7l-2.5-4.7
				l-11.2-5.1L834.8,472.7z"/>
			<path class="st5" d="M834.7,453.4l7.7,1.8l1.7-8.7c-1-0.8-2.3-1.2-3.7-1.2c-3.3,0-6,2.7-6,6C834.3,452,834.4,452.7,834.7,453.4"
				/>
			<path class="st6" d="M834,455.2c-3.4,1.1-5.8,4.4-5.8,8c0,3.5,2.2,6.6,5.4,7.9l10.7-9.7l-2-4.2L834,455.2z"/>
			<path class="st7" d="M859.5,482.3c1,0.8,2.3,1.2,3.6,1.2c3.3,0,6-2.7,6-6c0-0.7-0.1-1.4-0.4-2.1l-7.6-1.8L859.5,482.3z"/>
			<path class="st8" d="M861.1,471.7l8.4,2c3.4-1.1,5.8-4.4,5.8-8c0-3.5-2.2-6.6-5.4-7.9l-11,9.6L861.1,471.7z"/>
		</g>
		<g>
			<path class="st9" d="M897.6,474.7l1-0.1l0.1,2.1c-2.7,0.4-5,0.6-6.9,0.6c-2.5,0-4.3-0.7-5.4-2.2c-1.1-1.5-1.6-3.7-1.6-6.8
				c0-6.2,2.4-9.2,7.3-9.2c2.4,0,4.1,0.7,5.3,2s1.8,3.4,1.8,6.2l-0.1,2h-11.6c0,1.9,0.4,3.4,1.1,4.3c0.7,0.9,1.9,1.4,3.7,1.4
				C894,474.9,895.8,474.8,897.6,474.7z M896.6,467.1c0-2.2-0.3-3.7-1-4.6s-1.8-1.3-3.4-1.3c-1.6,0-2.7,0.5-3.5,1.4
				s-1.2,2.4-1.2,4.5H896.6z"/>
			<path class="st9" d="M903,477.1V454h2.6v23.1H903z"/>
			<path class="st9" d="M922.2,464.6v8.9c0,0.9,2.2,0.8,2.2,0.8l-0.1,2.3c-1.9,0-3.4,0.2-4.3-0.7c-2.1,0.9-4.2,1.3-6.3,1.3
				c-1.6,0-2.8-0.5-3.7-1.4c-0.8-0.9-1.3-2.2-1.3-3.9c0-1.7,0.4-3,1.3-3.8c0.9-0.8,2.2-1.3,4.1-1.5l5.5-0.5v-1.5
				c0-1.2-0.3-2.1-0.8-2.6s-1.2-0.8-2.1-0.8h-6.9V459h6.8c2,0,3.4,0.5,4.3,1.4C921.7,461.2,922.2,462.7,922.2,464.6z M911.4,471.8
				c0,2.2,0.9,3.2,2.7,3.2c1.6,0,3.2-0.3,4.7-0.8l0.8-0.3v-5.8l-5.2,0.5c-1.1,0.1-1.8,0.4-2.3,0.9
				C911.6,470.1,911.4,470.8,911.4,471.8z"/>
			<path class="st9" d="M932.5,461.3c-2.6,0-3.8,0.9-3.8,2.7c0,0.8,0.3,1.4,0.9,1.7c0.6,0.3,1.9,0.7,4,1.1s3.6,0.9,4.4,1.5
				c0.9,0.7,1.3,1.9,1.3,3.7c0,1.8-0.6,3.1-1.7,4c-1.2,0.8-2.9,1.3-5.1,1.3c-1.5,0-6.3-0.5-6.3-0.5l0.1-2.3c2.8,0.3,4.8,0.5,6.2,0.5
				s2.4-0.2,3.1-0.7c0.7-0.4,1.1-1.2,1.1-2.2s-0.3-1.7-0.9-2.1c-0.6-0.4-1.9-0.7-4-1s-3.5-0.8-4.4-1.4s-1.3-1.8-1.3-3.5
				s0.6-3,1.8-3.8s2.7-1.2,4.5-1.2c1.4,0,6.4,0.4,6.4,0.4v2.3C936.1,461.5,934,461.3,932.5,461.3z"/>
			<path class="st9" d="M952,461.6h-5.6v8.4c0,2,0.1,3.3,0.4,4c0.3,0.6,1,0.9,2.1,0.9l3.1-0.2l0.2,2.2c-1.6,0.3-2.8,0.4-3.6,0.4
				c-1.8,0-3.1-0.4-3.8-1.3s-1.1-2.6-1.1-5.1v-9.2h-2.5v-2.3h2.5V454h2.6v5.4h5.6L952,461.6L952,461.6z"/>
			<path class="st9" d="M955.7,457.1V454h2.6v3.1H955.7z M955.7,477.1v-17.8h2.6v17.8H955.7z"/>
			<path class="st9" d="M969.7,459c0.8,0,2.1,0.1,3.9,0.4l0.8,0.1l-0.1,2.1c-1.9-0.2-3.3-0.3-4.1-0.3c-2,0-3.3,0.5-4.1,1.4
				c-0.7,0.9-1.1,2.7-1.1,5.3c0,2.6,0.3,4.4,1,5.4s2.1,1.5,4.2,1.5l4.1-0.3l0.1,2.2c-2.2,0.3-3.8,0.5-4.9,0.5
				c-2.7,0-4.6-0.7-5.7-2.1c-1-1.4-1.6-3.8-1.6-7.1c0-3.3,0.6-5.7,1.7-7C965.2,459.6,967.1,459,969.7,459z"/>
		</g>
	</g>
	<path class="st10" d="M366.5,327.8c-6.8,4.1-24.3,15.4-39.3,25.1c-7.9,5.2-4.7,17.4,4.8,18L614.8,386c7.3,0,14.7-2.1,14.7-2.1
		l60.8-21c8.6-4.6,3.1-14.7-9.6-14.9l-308.4-21.6C370.2,326.2,368.3,326.7,366.5,327.8z"/>
	<g>
		<polygon class="st11" points="416.6,333.5 420.8,371.3 427.1,371.3 431.3,333.5 		"/>
		<polygon class="st11" points="668.3,343 672.5,380.7 678.8,380.7 683,343 		"/>
		<polygon class="st11" points="741.7,314.6 745.9,352.4 752.2,352.4 756.4,314.6 		"/>
		<path class="st12" d="M317.6,195.9l86-20.7c3.7-0.9,7.6,0.3,10.1,3.1l88,95.4c1.9,2,4.5,3.2,7.2,3.4l257.2,11.8
			c5.6,0.3,10,4.9,10,10.5L776,317c0,4.2-2.6,8-6.4,9.6l-71.1,29.7c-1.5,0.6-3.1,0.9-4.7,0.8l-293.7-18.4c-3-0.2-5.8-1.7-7.7-4.1
			L304.2,219c-3.4-4.4-2.7-10.6,1.5-14.3l7.5-6.5C314.5,197,316,196.2,317.6,195.9z"/>
		<path class="st13" d="M324.3,204.5l84.8,112.7c0.8,1,1.9,1.7,3.2,1.7l286.3,16.6c0.7,0,1.5-0.1,2.1-0.4l65-31.6
			c2.6-1.3,5.7,0.3,6.2,3.2l1.7,10.8c0.3,2-7.4,7.9-2.6,4.7c4.9-3.3-68.3,29.7-68.3,29.7c-0.6,0.3-1.3,0.4-2,0.4l-301-16.7
			c-1.3-0.1-2.4-0.7-3.2-1.7c-9.7-12.7-74.8-98.1-87.9-115c-1.3-1.7-1.2-4.1,0.3-5.6l8.6-9.2C319.5,202.2,322.7,202.3,324.3,204.5z"
			/>
	</g>
	<path class="st14" d="M332.7,166.8c0,0,10,59.3,79.2,50.9"/>
	<path class="st14" d="M424,206.6c-2.1-3.1-2.1-70.3-37.8-96.5"/>
	<path class="st15" d="M447,233.9c0,0,13.6,13.6,27.3,13.6c13.6,0,80.7-9.4,93.3-4.2s41.9,15.7,46.1,30.4s6.3,23.1,0,28.3
		s-19.9,9.4-18.9,8.4s7.3-7.3,5.2-8.4c0,0-110.1,0-117.5-1c-7.3-1-33.6-13.6-41.9-22s-31.5-32.5-33.6-68.2
		c-0.2-2.9,37-9.4,54.3-12.2c4.5-0.7,8.6,2.7,8.6,7.3v2.8l-12.6,7.3h9.4c0,0-17.8,10.5-28.3,17.8"/>
	<path class="st16" d="M412.4,221.3c-1,0-11.5-3.1-16.8,7.3c0,0,5.2,6.3,18.9,0"/>
	<ellipse cx="428.2" cy="214.5" rx="3.1" ry="3.7"/>
	<ellipse cx="436.6" cy="209.3" rx="2.1" ry="2.6"/>
	<polygon points="460.7,205.6 469.1,210.6 469.1,200.6 	"/>
	<polyline class="st14" points="395.7,137.4 410.6,144.1 430.3,128 	"/>
	<polyline class="st14" points="355.8,169.9 353.7,200.3 328.5,203.5 	"/>
	<path class="st14" d="M470.1,276.9c0,0,3.1,37.8,70.3,33.6"/>
	<path d="M538.3,310.5c1-1,14.7-5.2,14.7-5.2v12.6L538.3,310.5z"/>
	<path class="st14" d="M605.4,263.3c0,0,43-85.8,75.5,30.4"/>
	<path class="st14" d="M582.3,292.6c0,0,64,26.2,114.3,19.9"/>
	<path d="M677.9,285.8c0.7-0.1,8.6,6.6,14.5,11.6c2,1.7,0.7,5-1.9,4.9l-15.4-0.8c-1.9-0.1-3.2-2.1-2.4-3.9L677.9,285.8z"/>
	<path d="M696.6,312.6c0-0.7,7.4-7.9,13-13.3c1.9-1.8,5.1-0.2,4.7,2.4l-2.3,15.2c-0.3,1.9-2.4,2.9-4.1,2L696.6,312.6z"/>
	<path class="st17" d="M446,238.7c-2.1-1.6-5.2-0.8-6.2,1.6c-0.9,2.3-0.9,4.8,0.9,7.2c3.1,4.2,25.2,16.8,28.3,18.9
		s30.4,5.2,36.7,6.3s29.4-4.2,34.6-4.2s26.2-3.1,28.3-2.1s15.7,1,13.6-3.1s-4.1-8-9.4-12.6c-7.3-6.3-18.4-5.2-23.1-5.2
		c-6.3,0-36.6,2.8-59.8,5.2C467.9,253.1,452.3,243.5,446,238.7z"/>
	<path d="M496,256.8c0.7,1.4,0.6,17.1,0.6,17.1l-13.1-4.2L496,256.8z"/>
	<path class="st14" d="M494.2,261.2c0,0,17.8-39.8,33.6-17.8"/>
	<line class="st18" x1="420.8" y1="211.9" x2="439.7" y2="195.1"/>
	<g class="st19">
		<path d="M407.3,466.6h7.6v10c-1.2,0.4-2.4,0.7-3.5,0.8c-1.1,0.2-2.2,0.2-3.4,0.2c-2.9,0-5.1-0.9-6.7-2.6c-1.5-1.7-2.3-4.2-2.3-7.4
			c0-3.1,0.9-5.5,2.7-7.3c1.8-1.7,4.2-2.6,7.4-2.6c2,0,3.9,0.4,5.7,1.2l-1.4,3.3c-1.4-0.7-2.9-1.1-4.4-1.1c-1.8,0-3.2,0.6-4.2,1.8
			s-1.6,2.8-1.6,4.8c0,2.1,0.4,3.7,1.3,4.8c0.9,1.1,2.1,1.7,3.7,1.7c0.9,0,1.7-0.1,2.6-0.3v-4h-3.7V466.6z"/>
		<path d="M425.9,477.7c-2.4,0-4.2-0.7-5.6-2c-1.3-1.3-2-3.2-2-5.6c0-2.5,0.6-4.4,1.9-5.7c1.2-1.3,2.9-2,5.1-2
			c2.1,0,3.7,0.6,4.9,1.8s1.7,2.8,1.7,4.9v2h-9.5c0,1.1,0.4,2,1,2.7s1.5,1,2.7,1c0.9,0,1.7-0.1,2.5-0.3s1.6-0.5,2.5-0.9v3.1
			c-0.7,0.4-1.5,0.6-2.3,0.8C428.1,477.6,427.1,477.7,425.9,477.7z M425.4,465.2c-0.9,0-1.5,0.3-2,0.8c-0.5,0.5-0.8,1.3-0.8,2.3h5.6
			c0-1-0.3-1.8-0.8-2.3C426.9,465.5,426.2,465.2,425.4,465.2z"/>
		<path d="M441.4,474.5c0.7,0,1.5-0.2,2.5-0.5v3c-1,0.4-2.2,0.7-3.7,0.7c-1.6,0-2.8-0.4-3.5-1.2c-0.7-0.8-1.1-2-1.1-3.7v-7.1h-1.9
			V464l2.2-1.3l1.2-3.1h2.6v3.1h4.1v3h-4.1v7.1c0,0.6,0.2,1,0.5,1.3C440.5,474.3,440.9,474.5,441.4,474.5z"/>
		<path d="M460.2,474.5c0.7,0,1.5-0.2,2.5-0.5v3c-1,0.4-2.2,0.7-3.7,0.7c-1.6,0-2.8-0.4-3.5-1.2c-0.7-0.8-1.1-2-1.1-3.7v-7.1h-1.9
			V464l2.2-1.3l1.2-3.1h2.6v3.1h4.1v3h-4.1v7.1c0,0.6,0.2,1,0.5,1.3C459.2,474.3,459.6,474.5,460.2,474.5z"/>
		<path d="M479.1,470c0,2.4-0.6,4.3-1.9,5.6s-3,2-5.3,2c-1.4,0-2.7-0.3-3.7-0.9c-1.1-0.6-1.9-1.5-2.5-2.7s-0.9-2.5-0.9-4.1
			c0-2.4,0.6-4.3,1.9-5.6s3-2,5.3-2c1.4,0,2.7,0.3,3.7,0.9c1.1,0.6,1.9,1.5,2.5,2.7S479.1,468.5,479.1,470z M468.9,470
			c0,1.5,0.2,2.6,0.7,3.3s1.3,1.1,2.3,1.1c1.1,0,1.8-0.4,2.3-1.1c0.5-0.7,0.7-1.8,0.7-3.3c0-1.5-0.2-2.6-0.7-3.3s-1.3-1.1-2.3-1.1
			c-1.1,0-1.8,0.4-2.3,1.1C469.1,467.4,468.9,468.5,468.9,470z"/>
		<path d="M493.3,469.4l1.8-2.2l4.1-4.5h4.5l-5.9,6.4l6.2,8.3h-4.6l-4.2-6l-1.7,1.4v4.6h-4v-20.5h4v9.1L493.3,469.4L493.3,469.4z"/>
		<path d="M519.8,477.4h-4v-8.6c0-1.1-0.2-1.9-0.6-2.4c-0.4-0.5-1-0.8-1.8-0.8c-1.1,0-1.9,0.4-2.4,1.1c-0.5,0.8-0.8,2-0.8,3.7v6.9
			h-4v-14.7h3.1l0.5,1.9h0.2c0.4-0.7,1.1-1.3,1.9-1.6c0.8-0.4,1.7-0.5,2.7-0.5c1.7,0,3,0.5,3.9,1.4c0.9,0.9,1.3,2.3,1.3,4V477.4z"/>
		<path d="M537.3,470c0,2.4-0.6,4.3-1.9,5.6s-3,2-5.3,2c-1.4,0-2.7-0.3-3.7-0.9c-1.1-0.6-1.9-1.5-2.5-2.7s-0.9-2.5-0.9-4.1
			c0-2.4,0.6-4.3,1.9-5.6s3-2,5.3-2c1.4,0,2.7,0.3,3.7,0.9c1.1,0.6,1.9,1.5,2.5,2.7S537.3,468.5,537.3,470z M527.1,470
			c0,1.5,0.2,2.6,0.7,3.3c0.5,0.7,1.3,1.1,2.3,1.1c1.1,0,1.8-0.4,2.3-1.1c0.5-0.7,0.7-1.8,0.7-3.3c0-1.5-0.2-2.6-0.7-3.3
			s-1.3-1.1-2.3-1.1c-1.1,0-1.8,0.4-2.3,1.1C527.3,467.4,527.1,468.5,527.1,470z"/>
		<path d="M552.7,477.4l-1.1-5.2l-1.5-6.5H550l-2.7,11.7H543l-4.2-14.7h4l1.7,6.5c0.3,1.2,0.5,2.8,0.8,4.8h0.1
			c0-0.7,0.2-1.7,0.5-3.2l0.2-1.1l1.8-7.1h4.4l1.7,7.1c0,0.2,0.1,0.5,0.2,0.9c0.1,0.4,0.1,0.8,0.2,1.2c0.1,0.4,0.1,0.8,0.2,1.3
			c0.1,0.4,0.1,0.7,0.1,1h0.1c0.1-0.6,0.2-1.5,0.4-2.6c0.2-1.1,0.3-1.8,0.4-2.2l1.8-6.5h3.9l-4.2,14.7H552.7z"/>
		<path d="M576.9,474.5c0.7,0,1.5-0.2,2.5-0.5v3c-1,0.4-2.2,0.7-3.7,0.7c-1.6,0-2.8-0.4-3.5-1.2c-0.7-0.8-1.1-2-1.1-3.7v-7.1h-1.9
			V464l2.2-1.3l1.2-3.1h2.6v3.1h4.1v3h-4.1v7.1c0,0.6,0.2,1,0.5,1.3C576,474.3,576.4,474.5,576.9,474.5z"/>
		<path d="M596.1,477.4h-4v-8.6c0-2.1-0.8-3.2-2.4-3.2c-1.1,0-1.9,0.4-2.4,1.1s-0.8,2-0.8,3.7v6.9h-4v-20.5h4v4.2
			c0,0.3,0,1.1-0.1,2.3l-0.1,1.2h0.2c0.9-1.4,2.3-2.2,4.3-2.2c1.7,0,3,0.5,3.9,1.4c0.9,0.9,1.3,2.3,1.3,4V477.4z"/>
		<path d="M606.9,477.7c-2.4,0-4.2-0.7-5.6-2c-1.3-1.3-2-3.2-2-5.6c0-2.5,0.6-4.4,1.9-5.7c1.2-1.3,2.9-2,5.1-2
			c2.1,0,3.7,0.6,4.9,1.8s1.7,2.8,1.7,4.9v2h-9.5c0,1.1,0.4,2,1,2.7s1.5,1,2.7,1c0.9,0,1.7-0.1,2.5-0.3s1.6-0.5,2.5-0.9v3.1
			c-0.7,0.4-1.5,0.6-2.3,0.8C609,477.6,608,477.7,606.9,477.7z M606.3,465.2c-0.9,0-1.5,0.3-2,0.8c-0.5,0.5-0.8,1.3-0.8,2.3h5.6
			c0-1-0.3-1.8-0.8-2.3C607.8,465.5,607.2,465.2,606.3,465.2z"/>
		<path d="M631.4,462.4c0.5,0,1,0,1.4,0.1l-0.3,3.8c-0.3-0.1-0.7-0.1-1.2-0.1c-1.3,0-2.3,0.3-3,1c-0.7,0.7-1.1,1.6-1.1,2.8v7.5h-4
			v-14.7h3l0.6,2.5h0.2c0.5-0.8,1.1-1.5,1.9-2C629.6,462.6,630.5,462.4,631.4,462.4z"/>
		<path d="M642.1,477.7c-2.4,0-4.2-0.7-5.6-2c-1.3-1.3-2-3.2-2-5.6c0-2.5,0.6-4.4,1.9-5.7c1.2-1.3,2.9-2,5.1-2
			c2.1,0,3.7,0.6,4.9,1.8s1.7,2.8,1.7,4.9v2h-9.5c0,1.1,0.4,2,1,2.7s1.5,1,2.7,1c0.9,0,1.7-0.1,2.5-0.3s1.6-0.5,2.5-0.9v3.1
			c-0.7,0.4-1.5,0.6-2.3,0.8C644.2,477.6,643.2,477.7,642.1,477.7z M641.5,465.2c-0.9,0-1.5,0.3-2,0.8c-0.5,0.5-0.8,1.3-0.8,2.3h5.6
			c0-1-0.3-1.8-0.8-2.3C643.1,465.5,642.4,465.2,641.5,465.2z"/>
		<path d="M660.7,477.4l-0.8-2h-0.1c-0.7,0.9-1.4,1.4-2.1,1.8c-0.7,0.3-1.7,0.5-2.8,0.5c-1.4,0-2.5-0.4-3.3-1.2
			c-0.8-0.8-1.2-2-1.2-3.5c0-1.6,0.5-2.7,1.6-3.5c1.1-0.7,2.7-1.2,5-1.2l2.6-0.1v-0.6c0-1.5-0.8-2.2-2.3-2.2c-1.2,0-2.6,0.4-4.2,1.1
			l-1.3-2.7c1.7-0.9,3.6-1.3,5.6-1.3c2,0,3.5,0.4,4.5,1.3s1.6,2.2,1.6,3.9v9.8H660.7z M659.6,470.6l-1.6,0.1c-1.2,0-2,0.2-2.6,0.6
			s-0.9,1-0.9,1.8c0,1.1,0.7,1.7,2,1.7c0.9,0,1.7-0.3,2.2-0.8c0.6-0.5,0.8-1.2,0.8-2.1V470.6z"/>
		<path d="M671.7,477.4h-4v-20.5h4V477.4z"/>
		<path d="M694.4,477.4h-11.1v-19.3h11.1v3.3h-7v4.2h6.5v3.3h-6.5v5h7V477.4z"/>
		<path d="M698.4,477.4v-19.3h4.1V474h7.8v3.4H698.4z"/>
		<path d="M729.1,477.4h-4.6l-5-8.1l-1.7,1.2v6.9h-4.1v-19.3h4.1v8.8l1.6-2.3l5.2-6.6h4.5l-6.7,8.5L729.1,477.4z"/>
		<path d="M750,472c0,1.7-0.6,3.1-1.9,4.1c-1.3,1-3,1.5-5.2,1.5c-2.1,0-3.9-0.4-5.5-1.2v-3.8c1.3,0.6,2.4,1,3.3,1.2
			c0.9,0.2,1.7,0.4,2.5,0.4c0.9,0,1.6-0.2,2.1-0.5c0.5-0.3,0.7-0.9,0.7-1.5c0-0.4-0.1-0.7-0.3-1c-0.2-0.3-0.5-0.6-0.9-0.9
			c-0.4-0.3-1.2-0.7-2.5-1.3c-1.2-0.6-2.1-1.1-2.6-1.6s-1.1-1.1-1.4-1.8s-0.5-1.5-0.5-2.4c0-1.7,0.6-3,1.7-4c1.2-1,2.8-1.5,4.8-1.5
			c1,0,2,0.1,2.9,0.4c0.9,0.2,1.9,0.6,2.9,1l-1.3,3.2c-1-0.4-1.9-0.7-2.6-0.9c-0.7-0.2-1.3-0.3-2-0.3c-0.8,0-1.4,0.2-1.8,0.5
			s-0.6,0.8-0.6,1.4c0,0.4,0.1,0.7,0.2,0.9c0.2,0.3,0.4,0.5,0.8,0.8c0.4,0.3,1.2,0.7,2.6,1.4c1.8,0.9,3,1.7,3.7,2.6
			C749.6,469.7,750,470.8,750,472z"/>
		<path d="M759.3,474.5c0.7,0,1.5-0.2,2.5-0.5v3c-1,0.4-2.2,0.7-3.7,0.7c-1.6,0-2.8-0.4-3.5-1.2c-0.7-0.8-1.1-2-1.1-3.7v-7.1h-1.9
			V464l2.2-1.3l1.2-3.1h2.6v3.1h4.1v3h-4.1v7.1c0,0.6,0.2,1,0.5,1.3C758.4,474.3,758.8,474.5,759.3,474.5z"/>
		<path d="M774.2,477.4l-0.8-2h-0.1c-0.7,0.9-1.4,1.4-2.1,1.8c-0.7,0.3-1.7,0.5-2.8,0.5c-1.4,0-2.5-0.4-3.3-1.2
			c-0.8-0.8-1.2-2-1.2-3.5c0-1.6,0.5-2.7,1.6-3.5c1.1-0.7,2.7-1.2,5-1.2l2.6-0.1v-0.6c0-1.5-0.8-2.2-2.3-2.2c-1.2,0-2.6,0.4-4.2,1.1
			l-1.3-2.7c1.7-0.9,3.6-1.3,5.6-1.3c2,0,3.5,0.4,4.5,1.3s1.6,2.2,1.6,3.9v9.8H774.2z M773,470.6l-1.6,0.1c-1.2,0-2,0.2-2.6,0.6
			s-0.9,1-0.9,1.8c0,1.1,0.7,1.7,2,1.7c0.9,0,1.7-0.3,2.2-0.8c0.6-0.5,0.8-1.2,0.8-2.1V470.6z"/>
		<path d="M787.1,477.7c-4.6,0-6.9-2.5-6.9-7.6c0-2.5,0.6-4.4,1.9-5.7c1.2-1.3,3-2,5.4-2c1.7,0,3.2,0.3,4.6,1l-1.2,3.1
			c-0.6-0.3-1.2-0.5-1.8-0.6c-0.5-0.2-1.1-0.2-1.6-0.2c-2.1,0-3.1,1.5-3.1,4.5c0,2.9,1,4.3,3.1,4.3c0.8,0,1.5-0.1,2.1-0.3
			c0.7-0.2,1.3-0.5,2-1v3.4c-0.7,0.4-1.3,0.7-2,0.9C789,477.6,788.2,477.7,787.1,477.7z"/>
		<path d="M798.9,469.4l1.8-2.2l4.1-4.5h4.5l-5.9,6.4l6.2,8.3H805l-4.2-6l-1.7,1.4v4.6h-4v-20.5h4v9.1L798.9,469.4L798.9,469.4z"/>
		<path d="M811.2,475.5c0-0.7,0.2-1.3,0.6-1.7s1-0.6,1.7-0.6c0.7,0,1.3,0.2,1.7,0.6c0.4,0.4,0.6,0.9,0.6,1.7c0,0.7-0.2,1.2-0.6,1.6
			c-0.4,0.4-1,0.6-1.7,0.6c-0.7,0-1.3-0.2-1.7-0.6C811.4,476.8,811.2,476.2,811.2,475.5z"/>
	</g>
	<g class="st19">
		<path d="M496.6,102.4l4.3-20h2.3l-4.3,20H496.6z"/>
		<path d="M508.9,109.1c-0.6,0-1.2-0.1-1.7-0.3v-1.9c0.6,0.2,1.1,0.3,1.5,0.3c0.7,0,1.2-0.3,1.6-0.8s0.7-1.4,0.9-2.4l3.1-14.8h-2.6
			l0.2-0.9l2.8-0.9L515,86c0.4-1.8,1-3.1,1.7-3.9c0.7-0.8,1.8-1.1,3.3-1.1c0.4,0,0.8,0.1,1.3,0.2c0.5,0.1,0.9,0.2,1.2,0.3l-0.6,1.8
			c-0.7-0.3-1.3-0.4-1.9-0.4c-0.8,0-1.4,0.2-1.8,0.7s-0.8,1.3-1,2.4l-0.3,1.5h3.3l-0.3,1.7h-3.2l-3.2,15c-0.4,1.7-0.9,3-1.6,3.8
			S510.1,109.1,508.9,109.1z"/>
		<path d="M525.9,102.7c-1.7,0-3-0.5-4-1.5s-1.4-2.4-1.4-4.1c0-1.7,0.3-3.4,1-4.9c0.7-1.6,1.6-2.8,2.7-3.7s2.4-1.3,3.7-1.3
			c1.4,0,2.4,0.3,3.1,0.9c0.7,0.6,1.1,1.5,1.1,2.5c0,1.6-0.8,2.9-2.3,3.9c-1.5,0.9-3.7,1.4-6.5,1.4h-0.5l-0.1,1.1
			c0,1.2,0.3,2.1,0.8,2.8s1.4,1,2.6,1c0.6,0,1.2-0.1,1.8-0.2c0.6-0.2,1.4-0.5,2.3-0.9v2c-0.9,0.4-1.6,0.7-2.3,0.8
			S526.6,102.7,525.9,102.7z M527.8,89.1c-0.9,0-1.8,0.4-2.6,1.3c-0.8,0.9-1.5,2-1.9,3.6h0.2c2.1,0,3.7-0.3,4.8-0.8s1.7-1.3,1.7-2.4
			c0-0.5-0.2-0.9-0.5-1.2C529,89.3,528.5,89.1,527.8,89.1z"/>
		<path d="M539.7,102.7c-1.7,0-3-0.5-4-1.5s-1.4-2.4-1.4-4.1c0-1.7,0.3-3.4,1-4.9c0.7-1.6,1.6-2.8,2.7-3.7s2.4-1.3,3.7-1.3
			c1.4,0,2.4,0.3,3.1,0.9c0.7,0.6,1.1,1.5,1.1,2.5c0,1.6-0.8,2.9-2.3,3.9c-1.5,0.9-3.7,1.4-6.5,1.4h-0.5l-0.1,1.1
			c0,1.2,0.3,2.1,0.8,2.8s1.4,1,2.6,1c0.6,0,1.2-0.1,1.8-0.2c0.6-0.2,1.4-0.5,2.3-0.9v2c-0.9,0.4-1.6,0.7-2.3,0.8
			S540.5,102.7,539.7,102.7z M541.6,89.1c-0.9,0-1.8,0.4-2.6,1.3c-0.8,0.9-1.5,2-1.9,3.6h0.2c2.1,0,3.7-0.3,4.8-0.8s1.7-1.3,1.7-2.4
			c0-0.5-0.2-0.9-0.5-1.2C542.8,89.3,542.3,89.1,541.6,89.1z"/>
		<path d="M549.8,102.4h-2.3l4.5-21.3h2.3L549.8,102.4z"/>
		<path d="M564.2,102.4h-2.3l4.5-21.3h2.3L564.2,102.4z"/>
		<path d="M571.3,102.4H569l3.2-15h2.3L571.3,102.4z M572.9,83.6c0-0.5,0.1-0.9,0.4-1.3c0.3-0.3,0.7-0.5,1.1-0.5
			c0.8,0,1.2,0.4,1.2,1.2c0,0.5-0.2,0.9-0.5,1.3c-0.3,0.3-0.7,0.5-1.1,0.5c-0.4,0-0.7-0.1-0.9-0.3C573,84.3,572.9,84,572.9,83.6z"/>
		<path d="M579.9,94.8l7.2-7.3h2.7l-6.4,6.4l4,8.6h-2.6l-3.2-7.2l-2.1,1.7l-1.1,5.5h-2.3l4.5-21.3h2.3c-0.7,3.1-1.2,5.8-1.8,8.2
			S580.2,93.6,579.9,94.8L579.9,94.8z"/>
		<path d="M595.7,102.7c-1.7,0-3-0.5-4-1.5s-1.4-2.4-1.4-4.1c0-1.7,0.3-3.4,1-4.9c0.7-1.6,1.6-2.8,2.7-3.7s2.4-1.3,3.7-1.3
			c1.4,0,2.4,0.3,3.1,0.9c0.7,0.6,1.1,1.5,1.1,2.5c0,1.6-0.8,2.9-2.3,3.9c-1.5,0.9-3.7,1.4-6.5,1.4h-0.5l-0.1,1.1
			c0,1.2,0.3,2.1,0.8,2.8s1.4,1,2.6,1c0.6,0,1.2-0.1,1.8-0.2c0.6-0.2,1.4-0.5,2.3-0.9v2c-0.9,0.4-1.6,0.7-2.3,0.8
			S596.5,102.7,595.7,102.7z M597.6,89.1c-0.9,0-1.8,0.4-2.6,1.3c-0.8,0.9-1.5,2-1.9,3.6h0.2c2.1,0,3.7-0.3,4.8-0.8s1.7-1.3,1.7-2.4
			c0-0.5-0.2-0.9-0.5-1.2C598.9,89.3,598.3,89.1,597.6,89.1z"/>
		<path d="M615.5,100.8c0.5,0,1.2-0.1,2-0.4v1.8c-0.3,0.1-0.7,0.2-1.1,0.3c-0.5,0.1-0.8,0.1-1.1,0.1c-1.1,0-2-0.3-2.6-0.8
			c-0.6-0.5-0.9-1.4-0.9-2.4c0-0.6,0.1-1.3,0.2-2.1l1.7-8.2h-2.4l0.2-1l2.5-1.1l1.7-3.1h1.3l-0.8,3.4h3.7l-0.4,1.7H616l-1.8,8.3
			c-0.2,0.8-0.2,1.4-0.2,1.8c0,0.5,0.1,0.9,0.4,1.2C614.6,100.7,615,100.8,615.5,100.8z"/>
		<path d="M629.1,102.4l2-9.5c0.2-0.9,0.2-1.5,0.2-1.8c0-1.3-0.7-2-2-2c-0.8,0-1.6,0.3-2.4,0.8c-0.8,0.5-1.4,1.3-2,2.3
			s-1,2.3-1.3,3.7l-1.4,6.5H620l4.5-21.3h2.3c-0.2,0.7-0.3,1.5-0.5,2.2s-0.3,1.4-0.5,2.1c-0.2,0.7-0.3,1.5-0.5,2.3
			c-0.2,0.8-0.4,1.7-0.6,2.6h0.2c0.9-1.1,1.7-1.9,2.5-2.4s1.7-0.7,2.6-0.7c1.2,0,2.1,0.3,2.8,1c0.7,0.7,1,1.6,1,2.8
			c0,0.6-0.1,1.3-0.3,2.3c-0.4,1.8-1,4.8-2,9.2H629.1z"/>
		<path d="M642.1,102.7c-1.7,0-3-0.5-4-1.5s-1.4-2.4-1.4-4.1c0-1.7,0.3-3.4,1-4.9c0.7-1.6,1.6-2.8,2.7-3.7s2.4-1.3,3.7-1.3
			c1.4,0,2.4,0.3,3.1,0.9c0.7,0.6,1.1,1.5,1.1,2.5c0,1.6-0.8,2.9-2.3,3.9c-1.5,0.9-3.7,1.4-6.5,1.4h-0.5l-0.1,1.1
			c0,1.2,0.3,2.1,0.8,2.8s1.4,1,2.6,1c0.6,0,1.2-0.1,1.8-0.2c0.6-0.2,1.4-0.5,2.3-0.9v2c-0.9,0.4-1.6,0.7-2.3,0.8
			S642.8,102.7,642.1,102.7z M644,89.1c-0.9,0-1.8,0.4-2.6,1.3c-0.8,0.9-1.5,2-1.9,3.6h0.2c2.1,0,3.7-0.3,4.8-0.8s1.7-1.3,1.7-2.4
			c0-0.5-0.2-0.9-0.5-1.2C645.2,89.3,644.7,89.1,644,89.1z"/>
		<path d="M659.4,87.1c0.6,0,1.2,0.1,1.6,0.2l-0.5,2.1c-0.5-0.1-1-0.2-1.4-0.2c-0.8,0-1.6,0.3-2.3,0.8s-1.4,1.3-1.9,2.3
			c-0.5,1-0.9,2-1.2,3.2l-1.5,6.9h-2.3l3.2-15h1.9l-0.3,2.8h0.1c0.7-0.9,1.2-1.5,1.6-1.9c0.4-0.4,0.9-0.7,1.3-0.9
			C658.3,87.2,658.8,87.1,659.4,87.1z"/>
		<path d="M666.9,102.7c-1.7,0-3-0.5-4-1.5s-1.4-2.4-1.4-4.1c0-1.7,0.3-3.4,1-4.9c0.7-1.6,1.6-2.8,2.7-3.7s2.4-1.3,3.7-1.3
			c1.4,0,2.4,0.3,3.1,0.9c0.7,0.6,1.1,1.5,1.1,2.5c0,1.6-0.8,2.9-2.3,3.9c-1.5,0.9-3.7,1.4-6.5,1.4H664l-0.1,1.1
			c0,1.2,0.3,2.1,0.8,2.8s1.4,1,2.6,1c0.6,0,1.2-0.1,1.8-0.2c0.6-0.2,1.4-0.5,2.3-0.9v2c-0.9,0.4-1.6,0.7-2.3,0.8
			S667.7,102.7,666.9,102.7z M668.8,89.1c-0.9,0-1.8,0.4-2.6,1.3c-0.8,0.9-1.5,2-1.9,3.6h0.2c2.1,0,3.7-0.3,4.8-0.8s1.7-1.3,1.7-2.4
			c0-0.5-0.2-0.9-0.5-1.2C670.1,89.3,669.6,89.1,668.8,89.1z"/>
		<path d="M681.1,82.4l0.1,0.3c-0.4,0.8-0.9,1.8-1.5,3c-0.6,1.2-1.4,2.3-2.2,3.6h-1.8c1.2-2.7,2.1-5,2.8-6.8H681.1z"/>
		<path d="M688.8,98.2c0,1.4-0.5,2.5-1.5,3.3c-1,0.8-2.4,1.2-4.3,1.2c-1.5,0-2.9-0.3-4.2-0.9v-2.2c0.6,0.4,1.3,0.7,2.1,0.9
			s1.4,0.3,2.1,0.3c1.1,0,2-0.2,2.6-0.7c0.6-0.5,0.9-1,0.9-1.8c0-0.5-0.2-1-0.5-1.3c-0.3-0.4-1-0.8-2.1-1.5c-1.2-0.7-2-1.3-2.5-2
			s-0.7-1.4-0.7-2.3c0-1.3,0.5-2.3,1.4-3c0.9-0.8,2.1-1.2,3.6-1.2c1.6,0,3.1,0.3,4.5,1l-0.7,1.9l-0.8-0.3c-0.9-0.4-1.9-0.6-3-0.6
			c-0.8,0-1.5,0.2-2,0.6c-0.5,0.4-0.7,0.9-0.7,1.5c0,0.5,0.2,0.9,0.5,1.3c0.3,0.4,1,0.8,2,1.4c1,0.5,1.7,1,2.1,1.4s0.7,0.8,1,1.3
			C688.7,97.1,688.8,97.6,688.8,98.2z"/>
		<path d="M707.6,102.4l2-9.5c0.2-0.9,0.2-1.5,0.2-1.8c0-0.6-0.1-1.1-0.4-1.5c-0.3-0.4-0.8-0.5-1.4-0.5c-0.8,0-1.5,0.3-2.2,0.8
			s-1.4,1.3-1.9,2.3c-0.6,1-1,2.2-1.3,3.7l-1.4,6.5h-2.3l3.2-15h1.9l-0.3,2.8h0.1c0.8-1.1,1.6-1.9,2.4-2.3c0.8-0.5,1.6-0.7,2.4-0.7
			c1,0,1.8,0.3,2.4,0.9c0.6,0.6,0.9,1.4,1,2.5h0.1c0.8-1.1,1.6-2,2.5-2.5c0.9-0.6,1.8-0.8,2.7-0.8c1.2,0,2.1,0.3,2.7,0.9
			c0.6,0.6,1,1.5,1,2.7c0,0.6-0.1,1.4-0.3,2.4l-2,9.2h-2.3l2-9.5c0.2-0.9,0.3-1.6,0.3-2c0-0.6-0.2-1-0.5-1.4s-0.8-0.5-1.5-0.5
			c-0.7,0-1.5,0.3-2.2,0.8c-0.7,0.5-1.4,1.3-1.9,2.2c-0.5,1-1,2.1-1.2,3.5l-1.5,6.8H707.6z"/>
		<path d="M731.3,87.2c1.7,0,3.1,0.5,4.1,1.5c1,1,1.5,2.4,1.5,4.2c0,1.7-0.3,3.3-1,4.9s-1.5,2.7-2.7,3.5s-2.4,1.2-3.8,1.2
			c-1.8,0-3.1-0.5-4.1-1.5c-1-1-1.5-2.4-1.5-4.2c0-1.7,0.3-3.4,1-4.9c0.7-1.5,1.6-2.7,2.7-3.5C728.6,87.6,729.9,87.2,731.3,87.2z
			 M734.5,92.7c0-1-0.3-1.9-0.9-2.5c-0.6-0.7-1.3-1-2.3-1c-1,0-1.9,0.3-2.7,1c-0.8,0.7-1.4,1.6-1.8,2.8c-0.4,1.2-0.6,2.5-0.6,4
			c0,1.2,0.3,2.1,0.9,2.8c0.6,0.7,1.4,1,2.5,1c0.9,0,1.8-0.3,2.6-1c0.8-0.7,1.3-1.6,1.8-2.8S734.5,94.3,734.5,92.7z"/>
		<path d="M748.5,87.1c0.6,0,1.2,0.1,1.6,0.2l-0.5,2.1c-0.5-0.1-1-0.2-1.4-0.2c-0.8,0-1.6,0.3-2.3,0.8s-1.4,1.3-1.9,2.3
			c-0.5,1-0.9,2-1.2,3.2l-1.5,6.9H739l3.2-15h1.9l-0.3,2.8h0.1c0.7-0.9,1.2-1.5,1.6-1.9c0.4-0.4,0.9-0.7,1.3-0.9
			C747.4,87.2,747.9,87.1,748.5,87.1z"/>
		<path d="M756,102.7c-1.7,0-3-0.5-4-1.5s-1.4-2.4-1.4-4.1c0-1.7,0.3-3.4,1-4.9c0.7-1.6,1.6-2.8,2.7-3.7s2.4-1.3,3.7-1.3
			c1.4,0,2.4,0.3,3.1,0.9c0.7,0.6,1.1,1.5,1.1,2.5c0,1.6-0.8,2.9-2.3,3.9c-1.5,0.9-3.7,1.4-6.5,1.4H753l-0.1,1.1
			c0,1.2,0.3,2.1,0.8,2.8s1.4,1,2.6,1c0.6,0,1.2-0.1,1.8-0.2c0.6-0.2,1.4-0.5,2.3-0.9v2c-0.9,0.4-1.6,0.7-2.3,0.8
			S756.8,102.7,756,102.7z M757.9,89.1c-0.9,0-1.8,0.4-2.6,1.3c-0.8,0.9-1.5,2-1.9,3.6h0.2c2.1,0,3.7-0.3,4.8-0.8s1.7-1.3,1.7-2.4
			c0-0.5-0.2-0.9-0.5-1.2C759.1,89.3,758.6,89.1,757.9,89.1z"/>
		<path d="M775.7,100.8c0.5,0,1.2-0.1,2-0.4v1.8c-0.3,0.1-0.7,0.2-1.1,0.3c-0.5,0.1-0.8,0.1-1.1,0.1c-1.1,0-2-0.3-2.6-0.8
			c-0.6-0.5-0.9-1.4-0.9-2.4c0-0.6,0.1-1.3,0.2-2.1l1.7-8.2h-2.4l0.2-1l2.5-1.1L776,84h1.3l-0.8,3.4h3.7l-0.4,1.7h-3.7l-1.8,8.3
			c-0.2,0.8-0.2,1.4-0.2,1.8c0,0.5,0.1,0.9,0.4,1.2C774.9,100.7,775.3,100.8,775.7,100.8z"/>
		<path d="M788.2,87.2c1.7,0,3.1,0.5,4.1,1.5c1,1,1.5,2.4,1.5,4.2c0,1.7-0.3,3.3-1,4.9s-1.5,2.7-2.7,3.5s-2.4,1.2-3.8,1.2
			c-1.8,0-3.1-0.5-4.1-1.5c-1-1-1.5-2.4-1.5-4.2c0-1.7,0.3-3.4,1-4.9c0.7-1.5,1.6-2.7,2.7-3.5C785.6,87.6,786.8,87.2,788.2,87.2z
			 M791.4,92.7c0-1-0.3-1.9-0.9-2.5c-0.6-0.7-1.3-1-2.3-1c-1,0-1.9,0.3-2.7,1c-0.8,0.7-1.4,1.6-1.8,2.8c-0.4,1.2-0.6,2.5-0.6,4
			c0,1.2,0.3,2.1,0.9,2.8c0.6,0.7,1.4,1,2.5,1c0.9,0,1.8-0.3,2.6-1c0.8-0.7,1.3-1.6,1.8-2.8S791.4,94.3,791.4,92.7z"/>
		<path d="M811.9,102.4l2-9.5c0.2-0.9,0.2-1.5,0.2-1.8c0-0.6-0.1-1.1-0.4-1.5c-0.3-0.4-0.8-0.5-1.4-0.5c-0.8,0-1.5,0.3-2.2,0.8
			s-1.4,1.3-1.9,2.3c-0.6,1-1,2.2-1.3,3.7l-1.4,6.5h-2.3l3.2-15h1.9l-0.3,2.8h0.1c0.8-1.1,1.6-1.9,2.4-2.3c0.8-0.5,1.6-0.7,2.4-0.7
			c1,0,1.8,0.3,2.4,0.9c0.6,0.6,0.9,1.4,1,2.5h0.1c0.8-1.1,1.6-2,2.5-2.5c0.9-0.6,1.8-0.8,2.7-0.8c1.2,0,2.1,0.3,2.7,0.9
			c0.6,0.6,1,1.5,1,2.7c0,0.6-0.1,1.4-0.3,2.4l-2,9.2h-2.3l2-9.5c0.2-0.9,0.3-1.6,0.3-2c0-0.6-0.2-1-0.5-1.4s-0.8-0.5-1.5-0.5
			c-0.7,0-1.5,0.3-2.2,0.8c-0.7,0.5-1.4,1.3-1.9,2.2c-0.5,1-1,2.1-1.2,3.5l-1.5,6.8H811.9z"/>
		<path d="M833.6,102.7c-1.7,0-3-0.5-4-1.5s-1.4-2.4-1.4-4.1c0-1.7,0.3-3.4,1-4.9c0.7-1.6,1.6-2.8,2.7-3.7s2.4-1.3,3.7-1.3
			c1.4,0,2.4,0.3,3.1,0.9c0.7,0.6,1.1,1.5,1.1,2.5c0,1.6-0.8,2.9-2.3,3.9c-1.5,0.9-3.7,1.4-6.5,1.4h-0.5l-0.1,1.1
			c0,1.2,0.3,2.1,0.8,2.8s1.4,1,2.6,1c0.6,0,1.2-0.1,1.8-0.2c0.6-0.2,1.4-0.5,2.3-0.9v2c-0.9,0.4-1.6,0.7-2.3,0.8
			S834.3,102.7,833.6,102.7z M835.5,89.1c-0.9,0-1.8,0.4-2.6,1.3c-0.8,0.9-1.5,2-1.9,3.6h0.2c2.1,0,3.7-0.3,4.8-0.8s1.7-1.3,1.7-2.4
			c0-0.5-0.2-0.9-0.5-1.2C836.7,89.3,836.2,89.1,835.5,89.1z"/>
	</g>
	<g class="st19">
		<path d="M538.6,134.4c0.5,0,1.2-0.1,2-0.4v1.8c-0.3,0.1-0.7,0.2-1.1,0.3s-0.8,0.1-1.1,0.1c-1.1,0-2-0.3-2.6-0.8s-0.9-1.4-0.9-2.4
			c0-0.6,0.1-1.3,0.2-2.1l1.7-8.2h-2.4l0.2-1l2.5-1.1l1.7-3.1h1.3l-0.8,3.4h3.7l-0.4,1.7h-3.7l-1.8,8.3c-0.2,0.8-0.2,1.4-0.2,1.8
			c0,0.5,0.1,0.9,0.4,1.2S538.2,134.4,538.6,134.4z"/>
		<path d="M552.3,136l2-9.5c0.2-0.9,0.2-1.5,0.2-1.8c0-1.3-0.7-2-2-2c-0.8,0-1.6,0.3-2.4,0.8s-1.4,1.3-2,2.3s-1,2.3-1.3,3.7
			l-1.4,6.5h-2.3l4.5-21.3h2.3c-0.2,0.7-0.3,1.5-0.5,2.2s-0.3,1.4-0.5,2.1s-0.3,1.5-0.5,2.3s-0.4,1.7-0.6,2.6h0.2
			c0.9-1.1,1.7-1.9,2.5-2.4s1.7-0.7,2.6-0.7c1.2,0,2.1,0.3,2.8,1s1,1.6,1,2.8c0,0.6-0.1,1.3-0.3,2.3c-0.4,1.8-1,4.8-2,9.2H552.3z"/>
		<path d="M567.2,120.7c0.8,0,1.6,0.2,2.2,0.7s1.2,1.1,1.5,1.9h0.2l0.9-2.4h1.7l-3.2,15h-1.8l0.4-2.9H569c-1.6,2.1-3.3,3.1-5.2,3.1
			c-1.3,0-2.3-0.5-3-1.4s-1.1-2.1-1.1-3.7c0-1.9,0.3-3.7,1-5.3s1.5-2.9,2.7-3.8S565.9,120.7,567.2,120.7z M564.6,134.4
			c0.9,0,1.8-0.4,2.6-1.3s1.6-1.9,2.1-3.3s0.8-2.7,0.8-4.1c0-0.9-0.3-1.7-0.8-2.2s-1.2-0.8-2-0.8c-0.9,0-1.8,0.4-2.6,1.2
			s-1.5,1.8-1.9,3.2s-0.7,2.8-0.7,4.2c0,1,0.2,1.8,0.6,2.3S563.9,134.4,564.6,134.4z"/>
		<path d="M584.3,136l2-9.5c0.2-0.9,0.3-1.6,0.3-2c0-0.6-0.2-1-0.5-1.4s-0.8-0.5-1.6-0.5c-0.8,0-1.6,0.3-2.4,0.8s-1.4,1.3-2,2.3
			s-1,2.2-1.3,3.7l-1.4,6.5h-2.3l3.2-15h1.9l-0.3,2.8h0.1c0.9-1.1,1.7-1.9,2.5-2.4s1.7-0.7,2.5-0.7c1.2,0,2.1,0.3,2.7,1s1,1.5,1,2.7
			c0,0.7-0.1,1.5-0.3,2.5l-2,9.2H584.3z"/>
		<path d="M609.1,136l-0.4-8.2c0-0.9-0.1-1.6-0.1-2.4v-2.1h-0.1l-0.7,1.6l-1.1,2.6l-4,8.5h-2.8l-0.6-15h2.2l0.2,8.1v1.2
			c0,1.3,0,2.6-0.1,3.7h0.1c0.4-1.1,1.1-2.6,1.9-4.4l4-8.6h2.5l0.5,8.1c0.1,1.5,0.1,2.7,0.1,3.6v0.7l0,0.6h0.1
			c0.3-0.8,0.6-1.8,1.1-3s2-4.5,4.4-10h2.4l-6.9,15H609.1z"/>
		<path d="M627.8,136l2-9.5c0.2-0.9,0.2-1.5,0.2-1.8c0-1.3-0.7-2-2-2c-0.8,0-1.6,0.3-2.4,0.8s-1.4,1.3-2,2.3s-1,2.3-1.3,3.7
			l-1.4,6.5h-2.3l4.5-21.3h2.3c-0.2,0.7-0.3,1.5-0.5,2.2s-0.3,1.4-0.5,2.1s-0.3,1.5-0.5,2.3s-0.4,1.7-0.6,2.6h0.2
			c0.9-1.1,1.7-1.9,2.5-2.4s1.7-0.7,2.6-0.7c1.2,0,2.1,0.3,2.8,1s1,1.6,1,2.8c0,0.6-0.1,1.3-0.3,2.3c-0.4,1.8-1,4.8-2,9.2H627.8z"/>
		<path d="M642.7,120.7c0.8,0,1.6,0.2,2.2,0.7s1.2,1.1,1.5,1.9h0.2l0.9-2.4h1.7l-3.2,15h-1.8l0.4-2.9h-0.1c-1.6,2.1-3.3,3.1-5.2,3.1
			c-1.3,0-2.3-0.5-3-1.4s-1.1-2.1-1.1-3.7c0-1.9,0.3-3.7,1-5.3s1.5-2.9,2.7-3.8S641.3,120.7,642.7,120.7z M640.1,134.4
			c0.9,0,1.8-0.4,2.6-1.3s1.6-1.9,2.1-3.3s0.8-2.7,0.8-4.1c0-0.9-0.3-1.7-0.8-2.2s-1.2-0.8-2-0.8c-0.9,0-1.8,0.4-2.6,1.2
			s-1.5,1.8-1.9,3.2s-0.7,2.8-0.7,4.2c0,1,0.2,1.8,0.6,2.3S639.3,134.4,640.1,134.4z"/>
		<path d="M655.2,134.4c0.5,0,1.2-0.1,2-0.4v1.8c-0.3,0.1-0.7,0.2-1.1,0.3s-0.8,0.1-1.1,0.1c-1.1,0-2-0.3-2.6-0.8s-0.9-1.4-0.9-2.4
			c0-0.6,0.1-1.3,0.2-2.1l1.7-8.2H651l0.2-1l2.5-1.1l1.7-3.1h1.3L656,121h3.7l-0.4,1.7h-3.7l-1.8,8.3c-0.2,0.8-0.2,1.4-0.2,1.8
			c0,0.5,0.1,0.9,0.4,1.2S654.7,134.4,655.2,134.4z"/>
		<path d="M673.6,136.3c-0.9,0-1.7-0.2-2.3-0.7s-1.2-1.1-1.5-1.9h-0.1l-0.1,0.5c0,0.2-0.1,0.5-0.1,1s-0.6,2.9-1.6,7.6h-2.3l4.6-21.7
			h1.9l-0.4,2.9h0.1c1.6-2.1,3.3-3.1,5.1-3.1c1.2,0,2.2,0.4,3,1.3s1.1,2.1,1.1,3.7c0,1.9-0.3,3.7-0.9,5.3s-1.5,2.9-2.6,3.8
			S675,136.3,673.6,136.3z M676.1,122.7c-0.9,0-1.8,0.4-2.7,1.3s-1.6,2-2.2,3.3s-0.8,2.7-0.8,4c0,1,0.3,1.8,0.8,2.3s1.2,0.8,2.2,0.8
			c0.9,0,1.7-0.4,2.5-1.1s1.4-1.8,1.9-3.2s0.7-2.8,0.7-4.3C678.6,123.7,677.8,122.7,676.1,122.7z"/>
		<path d="M689,136.3c-1.7,0-3-0.5-4-1.5s-1.4-2.4-1.4-4.1c0-1.7,0.3-3.4,1-4.9s1.6-2.8,2.7-3.7s2.4-1.3,3.7-1.3
			c1.4,0,2.4,0.3,3.1,0.9s1.1,1.5,1.1,2.5c0,1.6-0.8,2.9-2.3,3.9s-3.7,1.4-6.5,1.4H686l-0.1,1.1c0,1.2,0.3,2.1,0.8,2.8s1.4,1,2.6,1
			c0.6,0,1.2-0.1,1.8-0.2s1.4-0.5,2.3-0.9v2c-0.9,0.4-1.6,0.7-2.3,0.8S689.8,136.3,689,136.3z M690.9,122.7c-0.9,0-1.8,0.4-2.6,1.3
			s-1.5,2-1.9,3.6h0.2c2.1,0,3.7-0.3,4.8-0.8s1.7-1.3,1.7-2.4c0-0.5-0.2-0.9-0.5-1.2S691.6,122.7,690.9,122.7z"/>
		<path d="M704.9,120.8c1.7,0,3.1,0.5,4.1,1.5s1.5,2.4,1.5,4.2c0,1.7-0.3,3.3-1,4.9s-1.5,2.7-2.7,3.5s-2.4,1.2-3.8,1.2
			c-1.8,0-3.1-0.5-4.1-1.5s-1.5-2.4-1.5-4.2c0-1.7,0.3-3.4,1-4.9s1.6-2.7,2.7-3.5S703.5,120.8,704.9,120.8z M708.1,126.3
			c0-1-0.3-1.9-0.9-2.5s-1.3-1-2.3-1c-1,0-1.9,0.3-2.7,1s-1.4,1.6-1.8,2.8s-0.6,2.5-0.6,4c0,1.2,0.3,2.1,0.9,2.8s1.4,1,2.5,1
			c0.9,0,1.8-0.3,2.6-1s1.3-1.6,1.8-2.8S708.1,127.9,708.1,126.3z"/>
		<path d="M719.3,136.3c-0.9,0-1.7-0.2-2.3-0.7s-1.2-1.1-1.5-1.9h-0.1l-0.1,0.5c0,0.2-0.1,0.5-0.1,1s-0.6,2.9-1.6,7.6h-2.3l4.6-21.7
			h1.9l-0.4,2.9h0.1c1.6-2.1,3.3-3.1,5.1-3.1c1.2,0,2.2,0.4,3,1.3s1.1,2.1,1.1,3.7c0,1.9-0.3,3.7-0.9,5.3s-1.5,2.9-2.6,3.8
			S720.7,136.3,719.3,136.3z M721.8,122.7c-0.9,0-1.8,0.4-2.7,1.3s-1.6,2-2.2,3.3s-0.8,2.7-0.8,4c0,1,0.3,1.8,0.8,2.3
			s1.2,0.8,2.2,0.8c0.9,0,1.7-0.4,2.5-1.1s1.4-1.8,1.9-3.2s0.7-2.8,0.7-4.3C724.2,123.7,723.4,122.7,721.8,122.7z"/>
		<path d="M731.1,136h-2.3l4.5-21.3h2.3L731.1,136z"/>
		<path d="M741.8,136.3c-1.7,0-3-0.5-4-1.5s-1.4-2.4-1.4-4.1c0-1.7,0.3-3.4,1-4.9s1.6-2.8,2.7-3.7s2.4-1.3,3.7-1.3
			c1.4,0,2.4,0.3,3.1,0.9s1.1,1.5,1.1,2.5c0,1.6-0.8,2.9-2.3,3.9s-3.7,1.4-6.5,1.4h-0.5l-0.1,1.1c0,1.2,0.3,2.1,0.8,2.8s1.4,1,2.6,1
			c0.6,0,1.2-0.1,1.8-0.2s1.4-0.5,2.3-0.9v2c-0.9,0.4-1.6,0.7-2.3,0.8S742.6,136.3,741.8,136.3z M743.7,122.7
			c-0.9,0-1.8,0.4-2.6,1.3s-1.5,2-1.9,3.6h0.2c2.1,0,3.7-0.3,4.8-0.8s1.7-1.3,1.7-2.4c0-0.5-0.2-0.9-0.5-1.2
			S744.4,122.7,743.7,122.7z"/>
		<path d="M766.2,131.8c0,1.4-0.5,2.5-1.5,3.3s-2.4,1.2-4.3,1.2c-1.5,0-2.9-0.3-4.2-0.9v-2.2c0.6,0.4,1.3,0.7,2.1,0.9
			s1.4,0.3,2.1,0.3c1.1,0,2-0.2,2.6-0.7s0.9-1,0.9-1.8c0-0.5-0.2-1-0.5-1.3s-1-0.8-2.1-1.5c-1.2-0.7-2-1.3-2.5-2s-0.7-1.4-0.7-2.3
			c0-1.3,0.5-2.3,1.4-3s2.1-1.2,3.6-1.2c1.6,0,3.1,0.3,4.5,1l-0.7,1.9l-0.8-0.3c-0.9-0.4-1.9-0.6-3-0.6c-0.8,0-1.5,0.2-2,0.6
			s-0.7,0.9-0.7,1.5c0,0.5,0.2,0.9,0.5,1.3s1,0.8,2,1.4c1,0.5,1.7,1,2.1,1.4s0.7,0.8,1,1.3S766.2,131.2,766.2,131.8z"/>
		<path d="M774.9,136.3c-1.7,0-3-0.5-4-1.5s-1.4-2.4-1.4-4.1c0-1.7,0.3-3.4,1-4.9s1.6-2.8,2.7-3.7s2.4-1.3,3.7-1.3
			c1.4,0,2.4,0.3,3.1,0.9s1.1,1.5,1.1,2.5c0,1.6-0.8,2.9-2.3,3.9s-3.7,1.4-6.5,1.4h-0.5l-0.1,1.1c0,1.2,0.3,2.1,0.8,2.8s1.4,1,2.6,1
			c0.6,0,1.2-0.1,1.8-0.2s1.4-0.5,2.3-0.9v2c-0.9,0.4-1.6,0.7-2.3,0.8S775.7,136.3,774.9,136.3z M776.8,122.7
			c-0.9,0-1.8,0.4-2.6,1.3s-1.5,2-1.9,3.6h0.2c2.1,0,3.7-0.3,4.8-0.8s1.7-1.3,1.7-2.4c0-0.5-0.2-0.9-0.5-1.2
			S777.5,122.7,776.8,122.7z"/>
		<path d="M788.7,136.3c-1.7,0-3-0.5-4-1.5s-1.4-2.4-1.4-4.1c0-1.7,0.3-3.4,1-4.9s1.6-2.8,2.7-3.7s2.4-1.3,3.7-1.3
			c1.4,0,2.4,0.3,3.1,0.9s1.1,1.5,1.1,2.5c0,1.6-0.8,2.9-2.3,3.9s-3.7,1.4-6.5,1.4h-0.5l-0.1,1.1c0,1.2,0.3,2.1,0.8,2.8s1.4,1,2.6,1
			c0.6,0,1.2-0.1,1.8-0.2s1.4-0.5,2.3-0.9v2c-0.9,0.4-1.6,0.7-2.3,0.8S789.5,136.3,788.7,136.3z M790.6,122.7
			c-0.9,0-1.8,0.4-2.6,1.3s-1.5,2-1.9,3.6h0.2c2.1,0,3.7-0.3,4.8-0.8s1.7-1.3,1.7-2.4c0-0.5-0.2-0.9-0.5-1.2
			S791.3,122.7,790.6,122.7z"/>
		<path d="M796.4,135c0-0.7,0.2-1.3,0.6-1.7s0.9-0.6,1.5-0.6c0.4,0,0.7,0.1,1,0.4s0.4,0.6,0.4,1.1c0,0.6-0.2,1.2-0.5,1.6
			s-0.9,0.6-1.5,0.6c-0.4,0-0.8-0.1-1-0.4S796.4,135.5,796.4,135z"/>
	</g>
	<line class="st20" x1="492.1" y1="186.7" x2="532" y2="163.6"/>
	<path class="st21" d="M1000,24"/>
	<path class="st21" d="M27,24"/>
	<path class="st21" d="M25.5,212.8c0-96.2,0-189.3,0-189.3h976v399h-976c0,0,0-14.8,0-38.7"/>
	<g>
		<g>
			<defs>
				<rect id="SVGID_1_" width="1024" height="512"/>
			</defs>
			<clipPath id="SVGID_2_">
				<use xlink:href="#SVGID_1_"  style="overflow:visible;"/>
			</clipPath>
			<g class="st22">
				<polygon class="st11" points="8.3,361.5 12.5,399.3 18.8,399.3 23,361.5 				"/>
				<polygon class="st11" points="85.9,323.7 90.1,361.5 96.4,361.5 100.6,323.7 				"/>
				<path class="st12" d="M-111.5,175.8l97-13.2c5.8-0.8,11.3,2.9,12.9,8.5l17.1,62.7c1.3,4.8,5.6,8.3,10.6,8.6l68.7,4.1
					c6.2,0.4,11,5.5,11,11.7v71c0,4.9-3,9.3-7.6,11L8.6,373.8c-2.2,0.8-4.7,1-7,0.4L-77.3,354c-4.6-1.2-8.1-5.1-8.7-9.8l-15.4-118.5
					c-0.8-6-6-10.5-12.1-10.2c-4.5,0.2-8.8,0.1-9.3-0.8c-0.6-1.3-2-15.2-3-26c-0.6-6.9,4.8-12.8,11.7-12.8h1.1
					C-112.6,175.9-112,175.8-111.5,175.8z"/>
				<path class="st23" d="M129.4,310.6c0,0,4.1-2.9,9.4-13.6c1-2.1,19.9-11.5,22-17.8c0,0,3.1-8.4,11.5-5.2c0,0-1,22-21,33.6
					l4.2,3.1L145,323.3l-5.2-5.2C139.9,318,133.6,320.1,129.4,310.6z"/>
				<path class="st23" d="M60.7,372c0,5.2-4.2,14.7-9.4,18.9c0,0-6.3,7.3,10.5,5.2s19.9-11.5,19.9-11.5l2.1-6.3l0,0h2.1l-1.8-13.2
					c-0.1-0.7-1-0.9-1.4-0.3c-1.2,1.9-3.5,3.9-7.3,1.9C69.1,363.6,60.7,366.7,60.7,372z"/>
				<ellipse class="st24" cx="4.5" cy="168" rx="3.5" ry="7"/>
				<path class="st13" d="M-116,191.3c0-6.6,7.3-11,12.9-7.5c0.2,0.1,0.5,0.3,0.7,0.5c4.2,3.1,16.8,6.3,18.9,23.1
					S-70.9,284-70.9,284l65,6.3c0,0,9.4,75.5,7.3,76.6S-77.3,348-77.3,348l-25.2-134.2l-13.6-4.2L-116,191.3L-116,191.3z"/>
				<path class="st25" d="M-17,149c14-1,24,26,22,33h-6l-2,17l-14,3c0,0-12-1-13-8s-14-40,11-45"/>
				<path class="st26" d="M-2,206c0,0,8,2,10,7c1.6,3.9,12.2,15.1,16.9,19.8c1.4,1.4,3.2,2.2,5.1,2.4l58,4.8l-3,9c0,0-47,1-48,2
					s-14,0-14,0L-2,206z"/>
				<path class="st25" d="M29,252l27-2l-61,36c0,0-60-58-61-60s32-17,32-17l32-3L29,252z"/>
				<path class="st13" d="M27.7,319.6v-48.3c0-2.8-2.5-4.8-5.2-4.3l-28.7,6.1c-2.2,0.5-3.6,2.5-3.4,4.7l2.1,20.3
					c0.2,2.2,2.1,3.9,4.3,3.9l0,0c2.3,0,4.2,1.8,4.3,4.1l3.4,60.6c0.2,2.9,3,4.8,5.6,3.9c19.5-6.5,85.9-29,85.9-32.4v-62.7
					c0-2.1,1.5-3.9,3.5-4.3c2.9-0.6,6.4-1.7,6.4-3.5v-14.5c0-3.1-3.1-5.2-6-4l-17.2,7.4c-1.6,0.7-2.6,2.2-2.6,3.9l-0.9,47.2
					c0,1.9-1.3,3.6-3.2,4.1l-43,11.8C30.3,324.5,27.7,322.4,27.7,319.6z"/>
				<path class="st25" d="M72.3,279.7l44,34.6l13.6-30.4L79.6,242H63.5c0,0-33.7,22.5-36.9,24.6c0,0,2.4,9.8,1.3,22.4s0,23,0,23
					l34.3-11.8L72.3,279.7z"/>
				<path class="st27" d="M55,272.9c1-1,7.3-5.2,11.5-6.3s10.5,6.3,10.5,6.3l10.5,82.8L55,361.1V272.9z"/>
			</g>
		</g>
	</g>
</g>
<g id="Meditation">
</g>
<g id="Rorschach">
</g>
<g id="EKLB">
</g>
</svg>
